<?xml version="1.0" encoding="utf-8"?>
<!-- Svg Vector Icons : http://www.onlinewebfonts.com/icon -->
<!DOCTYPE svg PUBLIC "-//W3C//DTD SVG 1.1//EN" "http://www.w3.org/Graphics/SVG/1.1/DTD/svg11.dtd">
<svg version="1.1" xmlns="http://www.w3.org/2000/svg" xmlns:xlink="http://www.w3.org/1999/xlink" x="0px" y="0px" viewBox="0 0 1000 1000" enable-background="new 0 0 1000 1000" xml:space="preserve">
<metadata> Svg Vector Icons : http://www.onlinewebfonts.com/icon </metadata>
<g><g transform="translate(0.000000,479.000000) scale(0.100000,-0.100000)"><path d="M1376,4354.7c-500.7-105.5-876.7-399-1085.7-842.1C58.1,3021.5,37,2350.2,234.6,1822.6C470.5,1195.4,1046,817.5,1767.3,817.5c272.4,0,439.3,36.4,734.7,155.4c61.4,24.9,63.3,24.9,193.7-101.7c147.7-143.9,243.6-184.1,358.7-151.5c155.4,42.2,239.8,157.3,239.8,324.2c0,107.4-59.5,205.3-178.4,297.3c-38.4,28.8-71,61.4-71,69.1c0,9.6,46,92.1,103.6,182.2c180.3,285.8,253.2,531.4,272.4,903.5c32.6,617.7-143.9,1127.9-517.9,1480.9c-211,201.4-431.6,314.6-746.2,379.8C1989.8,4393.1,1544.8,4391.2,1376,4354.7z M1941.9,3666.1c115.1-19.2,289.7-120.8,376-218.7c201.4-226.4,299.3-642.6,249.4-1053.1c-21.1-168.8-80.6-376-117-397.1c-9.6-5.8-55.6,24.9-103.6,65.2c-49.9,42.2-118.9,82.5-155.4,90.2c-195.7,36.4-374.1-105.5-374.1-297.3c0-101.7,28.8-170.7,99.8-245.5l59.5-61.4l-72.9-13.4c-38.4-5.8-132.4-7.7-209.1-3.8c-337.6,21.1-587,259-694.4,658c-48,178.4-57.5,564-19.2,759.6c61.4,312.7,222.5,552.5,443.1,661.8C1577.4,3683.3,1723.2,3700.6,1941.9,3666.1z"/><path d="M4500.8,3938.5c-166.9-88.2-251.3-299.3-191.8-479.6c28.8-88.2,168.8-214.8,262.8-241.7c99.7-28.8,4935.7-28.8,5035.4-1.9c353,97.8,397.1,581.2,67.1,730.9c-74.8,34.5-188,36.4-2583.9,36.4H4585.2L4500.8,3938.5z"/><path d="M4581.4,2563.1c-78.7-19.2-143.9-67.1-220.6-161.1c-53.7-67.1-59.5-84.4-59.5-212.9c0-124.7,5.8-149.6,57.5-222.5c32.6-44.1,95.9-101.7,141.9-126.6l84.4-44.1h1431c1607.5,0,1523.1-5.8,1647.8,143.9c151.6,186.1,95.9,475.7-117,588.9l-80.6,44.1l-1409.9,3.8C5281.6,2576.5,4617.8,2572.7,4581.4,2563.1z"/><path d="M4512.3-1271.5c-335.7-153.5-274.3-652.2,90.2-730.9c74.8-15.3,763.4-19.2,2557-15.3l2455.4,5.8l90.2,51.8c270.5,161.1,257.1,544.8-24.9,688.7c-71,36.4-136.2,36.4-2582,36.4C4700.3-1235.1,4585.2-1237,4512.3-1271.5z"/><path d="M1333.8-1375.1c-159.2-82.5-212.9-163.1-329.9-504.5c-51.8-145.8-260.9-736.6-466.1-1312.1c-335.7-940-372.1-1055-366.4-1143.3c15.3-193.8,151.5-349.1,339.5-389.4c178.4-38.4,383.7,53.7,460.4,205.3c19.2,38.4,69.1,186.1,109.3,326.1l72.9,253.2h587h588.9l71-262.8c40.3-145.8,94-301.2,118.9-347.2c99.7-170.7,347.2-245.5,537.1-159.2c143.9,65.2,257,241.7,257,402.8c0,32.6-138.1,447-308.8,918.8c-168.8,471.9-381.7,1064.6-470,1317.9c-170.7,481.5-212.9,569.7-320.3,650.3c-115.1,88.2-207.2,107.4-493,107.4C1458.5-1311.8,1454.6-1311.8,1333.8-1375.1z M1796.1-2288.2c17.3-11.5,326.1-928.4,328-974.5c0-3.8-172.6-5.8-383.7-5.8c-211,0-383.7,5.8-383.7,11.5c0,36.5,276.2,907.4,299.3,943.8C1684.8-2270.9,1748.1-2257.5,1796.1-2288.2z"/><path d="M4531.5-2643.1c-165-71-251.3-220.6-235.9-404.8c15.3-176.5,161.1-322.3,347.2-345.3c55.6-5.8,713.6-9.6,1461.7-5.8l1362,5.8l90.2,51.8c270.5,161.1,253.2,560.1-30.7,688.7c-74.8,34.5-157.3,36.4-1507.7,34.5C4882.5-2618.1,4577.5-2622,4531.5-2643.1z"/><path d="M4575.6-4035.7c-90.2-26.9-168.8-84.4-222.5-161.1c-44.1-65.2-51.8-94-51.8-214.8c0-122.8,5.8-147.7,57.5-220.6c32.6-44.1,95.9-101.7,141.9-126.6l84.4-44.1h2223.3c1962.4,0,2230.9,3.8,2294.2,28.8c289.7,122.8,320.4,523.7,51.8,690.6l-92.1,57.5l-2217.5,3.8C5624.9-4020.4,4604.4-4026.2,4575.6-4035.7z"/></g></g>
</svg>